<?xml version="1.0" encoding="UTF-8"?>
<svg width="3300px" height="2200px" viewBox="0 0 3300 2200" version="1.1" xmlns="http://www.w3.org/2000/svg" xmlns:xlink="http://www.w3.org/1999/xlink">
    <title>lossless</title>
    <g id="Page-1" stroke="none" stroke-width="1" fill="none" fill-rule="evenodd">
        <g id="lossless">
            <g id="Notes">
                <rect id="artboard" fill="#FFFFFF" fill-rule="nonzero" x="0" y="0" width="3300" height="2200"></rect>
                <line x1="263" y1="292" x2="3036" y2="292" id="Path" stroke="#000000" stroke-width="0.5"></line>
                <text id="Weight/Scale-Variations" fill="#000000" fill-rule="nonzero" font-family="Helvetica" font-size="13" font-weight="normal">
                    <tspan x="263" y="322">Weight/Scale Variations</tspan>
                </text>
                <text id="Ultralight" fill="#000000" fill-rule="nonzero" font-family="Helvetica" font-size="13" font-weight="normal">
                    <tspan x="533.711" y="322">Ultralight</tspan>
                </text>
                <text id="Thin" fill="#000000" fill-rule="nonzero" font-family="Helvetica" font-size="13" font-weight="normal">
                    <tspan x="843.422" y="322">Thin</tspan>
                </text>
                <text id="Light" fill="#000000" fill-rule="nonzero" font-family="Helvetica" font-size="13" font-weight="normal">
                    <tspan x="1138.63" y="322">Light</tspan>
                </text>
                <text id="Regular" fill="#000000" fill-rule="nonzero" font-family="Helvetica" font-size="13" font-weight="normal">
                    <tspan x="1426.84" y="322">Regular</tspan>
                </text>
                <text id="Medium" fill="#000000" fill-rule="nonzero" font-family="Helvetica" font-size="13" font-weight="normal">
                    <tspan x="1723.06" y="322">Medium</tspan>
                </text>
                <text id="Semibold" fill="#000000" fill-rule="nonzero" font-family="Helvetica" font-size="13" font-weight="normal">
                    <tspan x="2015.77" y="322">Semibold</tspan>
                </text>
                <text id="Bold" fill="#000000" fill-rule="nonzero" font-family="Helvetica" font-size="13" font-weight="normal">
                    <tspan x="2326.48" y="322">Bold</tspan>
                </text>
                <text id="Heavy" fill="#000000" fill-rule="nonzero" font-family="Helvetica" font-size="13" font-weight="normal">
                    <tspan x="2618.19" y="322">Heavy</tspan>
                </text>
                <text id="Black" fill="#000000" fill-rule="nonzero" font-family="Helvetica" font-size="13" font-weight="normal">
                    <tspan x="2917.4" y="322">Black</tspan>
                </text>
                <line x1="263" y1="1903" x2="3036" y2="1903" id="Path" stroke="#000000" stroke-width="0.5"></line>
                <g id="Group" transform="translate(264.367190, 1918.068400)" fill="#000000" fill-rule="nonzero">
                    <path d="M7.88086,15.761678 C8.96156,15.761678 9.97717667,15.5566 10.92771,15.146444 C11.8782433,14.7362873 12.7164767,14.166626 13.44241,13.43746 C14.1682767,12.7082933 14.7379433,11.86845 15.15141,10.91793 C15.56481,9.96741 15.77151,8.95504 15.77151,7.88082 C15.77151,6.8066 15.56481,5.79422667 15.15141,4.8437 C14.7379433,3.89316667 14.1666433,3.05333333 13.43751,2.3242 C12.70831,1.595 11.8684767,1.02533333 10.91801,0.6152 C9.96747667,0.205066667 8.95183667,0 7.87109,0 C6.79687,0 5.7845,0.205066667 4.83398,0.6152 C3.88346,1.02533333 3.04687333,1.595 2.32422,2.3242 C1.60156,3.05333333 1.03352333,3.89316667 0.62011,4.8437 C0.206703333,5.79422667 -8.8817842e-16,6.8066 -8.8817842e-16,7.88082 C-8.8817842e-16,8.95504 0.206703333,9.96741 0.62011,10.91793 C1.03352333,11.86845 1.60318667,12.7082933 2.3291,13.43746 C3.05501333,14.166626 3.89323,14.7362873 4.84375,15.146444 C5.79427,15.5566 6.80664,15.761678 7.88086,15.761678 Z M7.88086,14.277303 C6.99544,14.277303 6.16699,14.1129153 5.39551,13.78414 C4.62402333,13.4553667 3.94694,12.99801 3.36426,12.41207 C2.78157333,11.82613 2.32584333,11.14579 1.99707,10.37105 C1.66829,9.59631 1.5039,8.76623333 1.5039,7.88082 C1.5039,6.9954 1.66666333,6.16532 1.99219,5.39058 C2.31771,4.61586 2.77181,3.93553333 3.35449,3.3496 C3.93717,2.76366667 4.61425333,2.3063 5.38574,1.9775 C6.15722667,1.6487 6.98567667,1.4843 7.87109,1.4843 C8.76303667,1.4843 9.59474333,1.6487 10.36621,1.9775 C11.1376767,2.3063 11.8163767,2.76366667 12.40231,3.3496 C12.9882433,3.93553333 13.4472433,4.61586 13.77931,5.39058 C14.11131,6.16532 14.27731,6.9954 14.27731,7.88082 C14.27731,8.76623333 14.1129433,9.59631 13.78421,10.37105 C13.45541,11.14579 12.9996767,11.82613 12.41701,12.41207 C11.8343433,12.99801 11.15561,13.4553667 10.38081,13.78414 C9.60607667,14.1129153 8.77276,14.277303 7.88086,14.277303 Z M4.28711,7.88082 C4.28711,8.09566 4.35547,8.26981333 4.49219,8.40328 C4.62890333,8.53674667 4.81119333,8.60348 5.03906,8.60348 L7.14843,8.60348 L7.14843,10.72262 C7.14843,10.93746 7.21353667,11.1148667 7.34375,11.25484 C7.47395667,11.3948133 7.64973667,11.4648 7.87109,11.4648 C8.08593667,11.4648 8.26334667,11.3948133 8.40332,11.25484 C8.54329333,11.1148667 8.61328,10.93746 8.61328,10.72262 L8.61328,8.60348 L10.72261,8.60348 C10.94401,8.60348 11.1230767,8.53674667 11.25981,8.40328 C11.3964767,8.26981333 11.46481,8.09566 11.46481,7.88082 C11.46481,7.65946667 11.3964767,7.48043 11.25981,7.34371 C11.1230767,7.20699 10.94401,7.13863 10.72261,7.13863 L8.61328,7.13863 L8.61328,5.02926 C8.61328,4.80788667 8.54329333,4.62723333 8.40332,4.4873 C8.26334667,4.3473 8.08593667,4.2773 7.87109,4.2773 C7.64973667,4.2773 7.47395667,4.3473 7.34375,4.4873 C7.21353667,4.62723333 7.14843,4.80788667 7.14843,5.02926 L7.14843,7.13863 L5.03906,7.13863 C4.81119333,7.13863 4.62890333,7.20699 4.49219,7.34371 C4.35547,7.48043 4.28711,7.65946667 4.28711,7.88082 Z" id="Shape"></path>
                </g>
                <g id="Group" transform="translate(283.615050, 1915.988300)" fill="#000000" fill-rule="nonzero">
                    <path d="M9.96095,19.92186 C11.3216167,19.92186 12.60255,19.6614433 13.80375,19.14061 C15.0048833,18.6197767 16.06445,17.9003744 16.98245,16.9824031 C17.9003833,16.0644344 18.6197833,15.0048633 19.14065,13.80369 C19.66145,12.6025167 19.92185,11.3215933 19.92185,9.96092 C19.92185,8.60024 19.66145,7.3193 19.14065,6.1181 C18.6197833,4.91696667 17.9003833,3.8574 16.98245,2.9394 C16.06445,2.02146667 15.00325,1.30206667 13.79885,0.7812 C12.5943833,0.2604 11.3118167,0 9.95115,0 C8.59048333,0 7.30956667,0.2604 6.1084,0.7812 C4.90722667,1.30206667 3.84928333,2.02146667 2.93457,2.9394 C2.01985667,3.8574 1.30208333,4.91696667 0.78125,6.1181 C0.260416667,7.3193 8.8817842e-16,8.60024 8.8817842e-16,9.96092 C8.8817842e-16,11.3215933 0.260416667,12.6025167 0.78125,13.80369 C1.30208333,15.0048633 2.02148333,16.0644344 2.93945,16.9824031 C3.85741667,17.9003744 4.91698667,18.6197767 6.11816,19.14061 C7.31933333,19.6614433 8.60026333,19.92186 9.96095,19.92186 Z M9.96095,18.2617 C8.80859667,18.2617 7.73111667,18.0468563 6.72851,17.617169 C5.72591,17.1874813 4.84537667,16.593405 4.08691,15.83494 C3.32845,15.07648 2.73600333,14.1959467 2.30957,13.19334 C1.88313667,12.1907333 1.66992,11.11326 1.66992,9.96092 C1.66992,8.80857333 1.88313667,7.7311 2.30957,6.7285 C2.73600333,5.7259 3.32682333,4.84373333 4.08203,4.082 C4.83723667,3.32026667 5.71614333,2.7262 6.71875,2.2998 C7.72135,1.87333333 8.79881667,1.6601 9.95115,1.6601 C11.1034833,1.6601 12.18095,1.87333333 13.18355,2.2998 C14.18615,2.7262 15.0683167,3.32026667 15.83005,4.082 C16.5917833,4.84373333 17.1874833,5.7259 17.61715,6.7285 C18.0468833,7.7311 18.26175,8.80857333 18.26175,9.96092 C18.26175,11.11326 18.0485167,12.1907333 17.62205,13.19334 C17.19565,14.1959467 16.6032167,15.07648 15.84475,15.83494 C15.0862833,16.593405 14.2041167,17.1874813 13.19825,17.617169 C12.1923833,18.0468563 11.1132833,18.2617 9.96095,18.2617 Z M5.42968,9.96092 C5.42968,10.1952933 5.50780667,10.38735 5.66406,10.53709 C5.82030667,10.68683 6.02213,10.7617 6.26953,10.7617 L9.14065,10.7617 L9.14065,13.64256 C9.14065,13.8899533 9.21551667,14.09015 9.36525,14.24315 C9.51498333,14.3961433 9.70705,14.47264 9.94145,14.47264 C10.1887833,14.47264 10.38895,14.3961433 10.54195,14.24315 C10.69495,14.09015 10.77145,13.8899533 10.77145,13.64256 L10.77145,10.7617 L13.65235,10.7617 C13.89975,10.7617 14.09995,10.68683 14.25295,10.53709 C14.40595,10.38735 14.48245,10.1952933 14.48245,9.96092 C14.48245,9.71352 14.40595,9.51332333 14.25295,9.36033 C14.09995,9.20733667 13.89975,9.13084 13.65235,9.13084 L10.77145,9.13084 L10.77145,6.2597 C10.77145,6.00583333 10.69495,5.8024 10.54195,5.6494 C10.38895,5.4964 10.1887833,5.4199 9.94145,5.4199 C9.70705,5.4199 9.51498333,5.49803333 9.36525,5.6543 C9.21551667,5.81056667 9.14065,6.01236667 9.14065,6.2597 L9.14065,9.13084 L6.26953,9.13084 C6.01562333,9.13084 5.81217333,9.20733667 5.65918,9.36033 C5.50618,9.51332333 5.42968,9.71352 5.42968,9.96092 Z" id="Shape"></path>
                </g>
                <g id="Group" transform="translate(307.901860, 1913.224600)" fill="#000000" fill-rule="nonzero">
                    <path d="M12.71484,25.43946 C14.10804,25.43946 15.4378067,25.22299 16.70414,24.79005 C17.9704067,24.3571033 19.13414,23.7500067 20.19534,22.96876 C21.25654,22.1875067 22.1793733,21.2662827 22.96384,20.205088 C23.7483733,19.1438893 24.3571067,17.9785233 24.79004,16.70899 C25.2229733,15.4394633 25.43944,14.11134 25.43944,12.72462 C25.43944,11.3313933 25.2229733,10.0016533 24.79004,8.7354 C24.3571067,7.46906667 23.7483733,6.30533333 22.96384,5.2442 C22.1793733,4.183 21.25654,3.26013333 20.19534,2.4756 C19.13414,1.69106667 17.9687733,1.08233333 16.69924,0.6494 C15.4297067,0.216466667 14.0983067,0 12.70504,0 C11.31184,0 9.98210667,0.216466667 8.71584,0.6494 C7.44955333,1.08233333 6.28743667,1.69106667 5.22949,2.4756 C4.17155,3.26013333 3.25032667,4.183 2.46582,5.2442 C1.68131333,6.30533333 1.07421667,7.46906667 0.64453,8.7354 C0.214843333,10.0016533 0,11.3313933 0,12.72462 C0,14.11134 0.21647,15.4394633 0.64941,16.70899 C1.08235667,17.9785233 1.68945333,19.1438893 2.4707,20.205088 C3.25195333,21.2662827 4.17317667,22.1875067 5.23437,22.96876 C6.29557,23.7500067 7.45929333,24.3571033 8.72554,24.79005 C9.99187333,25.22299 11.32164,25.43946 12.71484,25.43946 Z M12.71484,23.62306 C11.51044,23.62306 10.3629733,23.43914 9.27244,23.0713 C8.18196,22.70346 7.18424667,22.18751 6.2793,21.52345 C5.37434667,20.8593853 4.58821333,20.0732513 3.9209,19.165048 C3.25358,18.2568427 2.73763,17.2574933 2.37305,16.167 C2.00846333,15.0765067 1.82617,13.9290467 1.82617,12.72462 C1.82617,11.51368 2.00846333,10.3629733 2.37305,9.2725 C2.73763,8.18196667 3.25195333,7.1826 3.91602,6.2744 C4.58008,5.3662 5.36458333,4.58006667 6.26953,3.916 C7.17447667,3.25193333 8.17221333,2.73763333 9.26274,2.3731 C10.3532067,2.0085 11.50064,1.8262 12.70504,1.8262 C13.9159733,1.8262 15.0667067,2.0085 16.15724,2.3731 C17.2477067,2.73763333 18.24704,3.25193333 19.15524,3.916 C20.06344,4.58006667 20.8495733,5.3662 21.51364,6.2744 C22.1777067,7.1826 22.6936733,8.18196667 23.06154,9.2725 C23.42934,10.3629733 23.6134125,11.51368 23.6134125,12.72462 C23.6197733,13.9290467 23.44074,15.0765067 23.07614,16.167 C22.7116067,17.2574933 22.1956733,18.2568427 21.52834,19.165048 C20.8610067,20.0732513 20.07324,20.8593853 19.16504,21.52345 C18.25684,22.18751 17.2575067,22.70346 16.16704,23.0713 C15.0765067,23.43914 13.9257733,23.62306 12.71484,23.62306 Z M6.94336,12.72462 C6.94336,12.9785267 7.02962333,13.1884867 7.20215,13.3545 C7.37467667,13.5205133 7.59440667,13.60352 7.86134,13.60352 L11.80664,13.60352 L11.80664,17.5586 C11.80664,17.8255267 11.88964,18.0452533 12.05564,18.21778 C12.22164,18.3903067 12.4348733,18.47657 12.69534,18.47657 C12.9622733,18.47657 13.1820067,18.3919367 13.35454,18.22267 C13.5270067,18.0533967 13.61324,17.83204 13.61324,17.5586 L13.61324,13.60352 L17.56834,13.60352 C17.8352733,13.60352 18.0533733,13.5205133 18.22264,13.3545 C18.3919067,13.1884867 18.47654,12.9785267 18.47654,12.72462 C18.47654,12.45118 18.3919067,12.2298267 18.22264,12.06056 C18.0533733,11.8912867 17.8352733,11.80665 17.56834,11.80665 L13.61324,11.80665 L13.61324,7.8613 C13.61324,7.5879 13.5270067,7.36493333 13.35454,7.1924 C13.1820067,7.01986667 12.9622733,6.9336 12.69534,6.9336 C12.4348733,6.9336 12.22164,7.01986667 12.05564,7.1924 C11.88964,7.36493333 11.80664,7.5879 11.80664,7.8613 L11.80664,11.80665 L7.86134,11.80665 C7.58789333,11.80665 7.36653333,11.8912867 7.19726,12.06056 C7.02799333,12.2298267 6.94336,12.45118 6.94336,12.72462 Z" id="Shape"></path>
                </g>
                <text id="Design-Variations" fill="#000000" fill-rule="nonzero" font-family="Helvetica" font-size="13" font-weight="normal">
                    <tspan x="263" y="1953">Design Variations</tspan>
                </text>
                <text id="Symbols-are-supported-in-up-to-nine-weights-and-three-scales." fill="#000000" fill-rule="nonzero" font-family="Helvetica" font-size="13" font-weight="normal">
                    <tspan x="263" y="1971">Symbols are supported in up to nine weights and three scales.</tspan>
                </text>
                <text id="For-optimal-layout-with-text-and-other-symbols,-vertically-align" fill="#000000" fill-rule="nonzero" font-family="Helvetica" font-size="13" font-weight="normal">
                    <tspan x="263" y="1989">For optimal layout with text and other symbols, vertically align</tspan>
                </text>
                <text id="symbols-with-the-adjacent-text." fill="#000000" fill-rule="nonzero" font-family="Helvetica" font-size="13" font-weight="normal">
                    <tspan x="263" y="2007">symbols with the adjacent text.</tspan>
                </text>
                <line x1="776" y1="1919" x2="776" y2="1933" id="Path" stroke="#00AEEF" stroke-width="0.5"></line>
                <g id="Group" transform="translate(778.490230, 1918.732400)" fill="#000000" fill-rule="nonzero">
                    <path d="M0.82032,14.42385 C1.08073333,14.42385 1.28255667,14.3685115 1.42579,14.2578344 C1.56901667,14.1471575 1.68620333,13.9551 1.77735,13.681662 L3.03711,10.2344 L8.79887,10.2344 L10.05857,13.681662 C10.1497033,13.9551 10.2669033,14.1471575 10.41017,14.2578344 C10.55337,14.3685115 10.7519367,14.42385 11.00587,14.42385 C11.26627,14.42385 11.47297,14.3522354 11.62597,14.2090062 C11.77897,14.0657767 11.85547,13.8704643 11.85547,13.623069 C11.85547,13.473329 11.81967,13.297546 11.74807,13.09572 L7.16797,0.8985 C7.05078333,0.598966667 6.89128,0.374333333 6.68946,0.2246 C6.48763333,0.0748666667 6.23047,0 5.91797,0 C5.31250333,0 4.90234667,0.296233333 4.6875,0.8887 L0.10743,13.10549 C0.03581,13.3073133 -4.4408921e-16,13.4830947 -4.4408921e-16,13.632834 C-4.4408921e-16,13.88023 0.0732433333,14.073915 0.21973,14.2138891 C0.366216667,14.353863 0.566413333,14.42385 0.82032,14.42385 Z M3.51563,8.75002 L5.88868,2.1778 L5.9375,2.1778 L8.31057,8.75002 L3.51563,8.75002 Z" id="Shape"></path>
                </g>
                <line x1="793.197" y1="1919" x2="793.197" y2="1933" id="Path" stroke="#00AEEF" stroke-width="0.5"></line>
                <text id="Margins" fill="#000000" fill-rule="nonzero" font-family="Helvetica" font-size="13" font-weight="normal">
                    <tspan x="776" y="1953">Margins</tspan>
                </text>
                <text id="Leading-and-trailing-margins-on-the-left-and-right-side-of-each-symbol" fill="#000000" fill-rule="nonzero" font-family="Helvetica" font-size="13" font-weight="normal">
                    <tspan x="776" y="1971">Leading and trailing margins on the left and right side of each symbol</tspan>
                </text>
                <text id="can-be-adjusted-by-modifying-the-x-location-of-the-margin-guidelines." fill="#000000" fill-rule="nonzero" font-family="Helvetica" font-size="13" font-weight="normal">
                    <tspan x="776" y="1989">can be adjusted by modifying the x-location of the margin guidelines.</tspan>
                </text>
                <text id="Modifications-are-automatically-applied-proportionally-to-all" fill="#000000" fill-rule="nonzero" font-family="Helvetica" font-size="13" font-weight="normal">
                    <tspan x="776" y="2007">Modifications are automatically applied proportionally to all</tspan>
                </text>
                <text id="scales-and-weights." fill="#000000" fill-rule="nonzero" font-family="Helvetica" font-size="13" font-weight="normal">
                    <tspan x="776" y="2025">scales and weights.</tspan>
                </text>
                <g id="Group" transform="translate(1291.246849, 1914.517550)" fill="#000000" fill-rule="nonzero">
                    <path d="M0.594951479,20.3476805 L2.29417148,22.0566705 C2.72385815,22.4928705 3.17795815,22.6946938 3.65647148,22.6621405 C4.13498481,22.6295872 4.60536148,22.3561505 5.06760148,21.8418305 L15.7609515,10.0547205 L14.7941515,9.07815049 L4.17893148,20.7578405 C4.00315148,20.9596605 3.82574148,21.0735938 3.64670148,21.0996405 C3.46766815,21.1256805 3.26096481,21.0215138 3.02659148,20.7871405 L1.85471148,19.6250305 C1.62033815,19.3906545 1.51780148,19.1839482 1.54710148,19.0049115 C1.57639481,18.8258748 1.69195148,18.6452108 1.89377148,18.4629193 L13.3683515,7.66215049 L12.3918515,6.69535049 L0.800031479,17.5840125 C0.305238146,18.0397418 0.039938146,18.5052368 0.00413147929,18.9804975 C-0.0316751874,19.4557595 0.165264813,19.9114872 0.594951479,20.3476805 Z M7.01096148,2.15435049 C6.80262815,2.35615049 6.68544148,2.58725049 6.65940148,2.84765049 C6.63336148,3.10811716 6.67893481,3.33598382 6.79612148,3.53125049 C6.91330815,3.71358382 7.08420481,3.85031716 7.30881148,3.94145049 C7.53342481,4.03258382 7.80850481,4.03908382 8.13405148,3.96095049 C8.86318481,3.79168382 9.60211815,3.72171716 10.3508515,3.75105049 C11.0995181,3.78031716 11.8319181,4.02931716 12.5480515,4.49805049 L11.9621515,5.95315049 C11.7928848,6.36981716 11.7456848,6.73278382 11.8205515,7.04205049 C11.8954181,7.35125049 12.0663181,7.64258382 12.3332515,7.91605049 L14.6281515,10.2305005 C14.8690181,10.4778938 15.1033848,10.6211205 15.3312515,10.6601805 C15.5591181,10.6992472 15.8130181,10.6927372 16.0929515,10.6406505 L17.1574515,10.4453405 L17.8215515,11.1191705 L17.7824515,11.6758105 C17.7629181,11.9232038 17.7938515,12.1510672 17.8752515,12.3594005 C17.9565848,12.5677338 18.1177181,12.7923438 18.3586515,13.0332305 L19.1203515,13.7754205 C19.3612181,14.0163072 19.6232515,14.1416338 19.9064515,14.1514005 C20.1896515,14.1611605 20.4484515,14.0488538 20.6828515,13.8144805 L23.5929515,10.8945605 C23.8273515,10.6601872 23.9412848,10.4046538 23.9347515,10.1279605 C23.9282848,9.85126716 23.8045848,9.59247716 23.5636515,9.35159049 L22.7922515,8.58987049 C22.5578515,8.34899049 22.3381181,8.18461716 22.1330515,8.09675049 C21.9279848,8.00881716 21.7049848,7.97461716 21.4640515,7.99415049 L20.8879515,8.04295049 L20.2433515,7.40825049 L20.4875515,6.28515049 C20.5526181,6.00521716 20.5395848,5.74318382 20.4484515,5.49905049 C20.3573181,5.25491716 20.1652515,4.98635049 19.8722515,4.69335049 L17.6750515,2.50585049 C16.8417181,1.67905049 15.9546515,1.05895049 15.0138515,0.64555049 C14.0731181,0.23215049 13.1258515,0.0173171567 12.1720515,0.00105049002 C11.2183181,-0.0152828433 10.3003515,0.15885049 9.41815148,0.52345049 C8.53601815,0.88805049 7.73362148,1.43168382 7.01096148,2.15435049 Z M8.50515148,2.52545049 C9.11061815,2.08271716 9.76001815,1.76695049 10.4533515,1.57815049 C11.1466848,1.38935049 11.8481848,1.32911716 12.5578515,1.39745049 C13.2674515,1.46585049 13.9559181,1.65628382 14.6232515,1.96875049 C15.2905848,2.28128382 15.9009515,2.71748382 16.4543515,3.27735049 L18.8859515,5.68945049 C19.0031515,5.80665049 19.0763848,5.92058382 19.1056515,6.03125049 C19.1349848,6.14191716 19.1301181,6.28191716 19.0910515,6.45125049 L18.7687515,7.93555049 L20.2726515,9.41995049 L21.2590515,9.36136049 C21.3827181,9.35484716 21.4771181,9.36298382 21.5422515,9.38577049 C21.6073181,9.40855716 21.6886848,9.46877716 21.7863515,9.56643049 L22.3625515,10.1426105 L19.9211515,12.5840105 L19.3449515,12.0078405 C19.2472848,11.9101872 19.1854181,11.8288072 19.1593515,11.7637005 C19.1333515,11.6985938 19.1236181,11.6009372 19.1301515,11.4707305 L19.1984515,10.4941705 L17.7043515,9.00979049 L16.1808515,9.26370049 C16.0181181,9.29625382 15.8895515,9.30113716 15.7951515,9.27835049 C15.7007515,9.25556382 15.5916848,9.18557716 15.4679515,9.06839049 L13.4660515,7.06645049 C13.3358515,6.94925049 13.2626181,6.83695049 13.2463515,6.72955049 C13.2300848,6.62208382 13.2609848,6.47721716 13.3390515,6.29495049 L14.2179515,4.20515049 C13.4367515,3.47595049 12.5578515,2.97138382 11.5812515,2.69145049 C10.6047181,2.41151716 9.60861815,2.42128382 8.59295148,2.72075049 C8.51488481,2.74028382 8.46445148,2.72561716 8.44165148,2.67675049 C8.41885148,2.62795049 8.44001815,2.57751716 8.50515148,2.52545049 Z" id="Shape"></path>
                </g>
                <text id="Exporting" fill="#000000" fill-rule="nonzero" font-family="Helvetica" font-size="13" font-weight="normal">
                    <tspan x="1289" y="1953">Exporting</tspan>
                </text>
                <text id="Symbols-should-be-outlined-when-exporting-to-ensure-the" fill="#000000" fill-rule="nonzero" font-family="Helvetica" font-size="13" font-weight="normal">
                    <tspan x="1289" y="1971">Symbols should be outlined when exporting to ensure the</tspan>
                </text>
                <text id="design-is-preserved-when-submitting-to-Xcode." fill="#000000" fill-rule="nonzero" font-family="Helvetica" font-size="13" font-weight="normal">
                    <tspan x="1289" y="1989">design is preserved when submitting to Xcode.</tspan>
                </text>
                <text id="template-version" fill="#000000" fill-rule="nonzero" font-family="Helvetica" font-size="13" font-weight="normal">
                    <tspan x="2952" y="1933">Template v.3.0</tspan>
                </text>
                <text id="Requires-Xcode-13-or-greater" fill="#000000" fill-rule="nonzero" font-family="Helvetica" font-size="13" font-weight="normal">
                    <tspan x="2865.45752" y="1951">Requires Xcode 13 or greater</tspan>
                </text>
                <text id="Generated-from-lossl" fill="#000000" fill-rule="nonzero" font-family="Helvetica" font-size="13" font-weight="normal">
                    <tspan x="2895.10742" y="1969">Generated from lossless</tspan>
                </text>
                <text id="Typeset-at-100-points" fill="#000000" fill-rule="nonzero" font-family="Helvetica" font-size="13" font-weight="normal">
                    <tspan x="2912" y="1987">Typeset at 100 points</tspan>
                </text>
                <text id="Small" fill="#000000" fill-rule="nonzero" font-family="Helvetica" font-size="13" font-weight="normal">
                    <tspan x="263" y="726">Small</tspan>
                </text>
                <text id="Medium" fill="#000000" fill-rule="nonzero" font-family="Helvetica" font-size="13" font-weight="normal">
                    <tspan x="263" y="1156">Medium</tspan>
                </text>
                <text id="Large" fill="#000000" fill-rule="nonzero" font-family="Helvetica" font-size="13" font-weight="normal">
                    <tspan x="263" y="1586">Large</tspan>
                </text>
            </g>
            <g id="Guides" transform="translate(263.000000, 625.041000)">
                <g id="H-reference" transform="translate(76.993347, 0.500000)" fill="#27AAE1" fill-rule="nonzero">
                    <path d="M0,70.459 L2.644353,70.459 L28.334853,3.3264 L29.036753,3.3264 L29.036753,0 L27.129353,0 L0,70.459 Z M10.694853,45.9793 L45.988453,45.9793 L45.237753,43.7302 L11.444853,43.7302 L10.694853,45.9793 Z M54.125953,70.459 L56.770353,70.459 L29.644753,0 L28.439353,0 L28.439353,3.3264 L54.125953,70.459 Z" id="Shape"></path>
                </g>
                <line x1="0" y1="70.959" x2="2773" y2="70.959" id="Baseline-S" stroke="#27AAE1" stroke-width="0.5"></line>
                <line x1="0" y1="0.5" x2="2773" y2="0.5" id="Capline-S" stroke="#27AAE1" stroke-width="0.5"></line>
                <g id="H-reference" transform="translate(76.993347, 430.500000)" fill="#27AAE1" fill-rule="nonzero">
                    <path d="M0,70.459 L2.644353,70.459 L28.334853,3.3264 L29.036753,3.3264 L29.036753,0 L27.129353,0 L0,70.459 Z M10.694853,45.9793 L45.988453,45.9793 L45.237753,43.7302 L11.444853,43.7302 L10.694853,45.9793 Z M54.125953,70.459 L56.770353,70.459 L29.644753,0 L28.439353,0 L28.439353,3.3264 L54.125953,70.459 Z" id="Shape"></path>
                </g>
                <line x1="0" y1="500.959" x2="2773" y2="500.959" id="Baseline-M" stroke="#27AAE1" stroke-width="0.5"></line>
                <line x1="0" y1="430.499" x2="2773" y2="430.499" id="Capline-M" stroke="#27AAE1" stroke-width="0.5"></line>
                <g id="H-reference" transform="translate(76.993347, 860.500000)" fill="#27AAE1" fill-rule="nonzero">
                    <path d="M0,70.459 L2.644353,70.459 L28.334853,3.3264 L29.036753,3.3264 L29.036753,0 L27.129353,0 L0,70.459 Z M10.694853,45.9793 L45.988453,45.9793 L45.237753,43.7302 L11.444853,43.7302 L10.694853,45.9793 Z M54.125953,70.459 L56.770353,70.459 L29.644753,0 L28.439353,0 L28.439353,3.3264 L54.125953,70.459 Z" id="Shape"></path>
                </g>
                <line x1="0" y1="930.959" x2="2773" y2="930.959" id="Baseline-L" stroke="#27AAE1" stroke-width="0.5"></line>
                <line x1="0" y1="860.499" x2="2773" y2="860.499" id="Capline-L" stroke="#27AAE1" stroke-width="0.5"></line>
                <line x1="1119.06" y1="405.749" x2="1119.06" y2="525.079" id="left-margin-Regular-M" stroke="#00AEEF" stroke-width="0.5"></line>
                <line x1="1255.63" y1="405.749" x2="1255.63" y2="525.079" id="right-margin-Regular-M" stroke="#00AEEF" stroke-width="0.5"></line>
            </g>
            <g id="Symbols" transform="translate(1373.000000, 645.000000)" fill="#000000" fill-rule="nonzero">
                <g id="Regular-L" transform="translate(0.000000, 828.000000)">
                    <path d="M84.5654801,0 C102.750232,0 110.595851,30.5696023 117.158135,50.7150628 C120.623655,36.2256241 118.806227,33.1144859 122.51918,33.1144859 C123.900284,33.1144859 125.298088,34.0571562 125.298088,35.7749593 C125.298088,36.4350998 124.281078,43.1113251 122.836451,50.1038992 L122.674207,50.8818641 C121.991108,54.1263959 121.221035,57.3934859 120.422473,60.1175548 C136.380317,102.097837 148.229343,46.8021715 149.568251,35.4994421 C149.76367,33.8694625 150.986256,33.1145153 152.222222,33.1145153 C153.873047,33.1145153 155.226276,34.362849 154.968315,36.241373 C152.111163,54.5210908 147.717067,83 129.650695,83 C119.680641,83 114.075838,75.1668426 109.649574,66.1907162 C98.5810761,44.3600082 93.4840199,7.70422814 82.6326118,7.70422814 C79.1560658,7.70422814 76.5786336,11.348742 76.4000635,11.348742 C76.0720919,11.348742 75.8146897,9.86382254 72.5683178,5.79538175 C75.6579667,2.25305929 79.916393,0 84.5654801,0 Z M25.4004505,0.0446609998 C53.8481495,0.0446609998 56.3784765,75.4078063 72.4787534,75.4078063 C74.3690448,75.4078063 76.4066206,74.2572567 78.6338223,71.6513461 C79.8665827,73.7480625 81.1301878,75.6096035 82.4380753,77.2486035 C79.2243418,80.9315787 75.2256111,82.9972968 70.2181782,82.9972968 C52.2289036,82.99477 44.4996063,52.7489893 37.8473461,32.3286286 C36.2806745,38.878987 35.4674497,44.8070589 35.1490931,47.4685019 C34.951528,49.1597728 33.7167976,49.9306158 32.4729519,49.9306158 C31.0935835,49.9306158 29.7029533,48.9826567 29.7029533,47.29071 C29.7029533,47.1646014 29.7106866,47.0343793 29.7267117,46.9001025 C30.6479961,40.1875543 32.5045024,30.0175394 34.5832436,22.9269005 C34.4075593,22.4647263 34.2290968,21.9998247 34.047614,21.534405 L33.7730942,20.8361632 C31.1430605,14.2044229 27.8751047,7.69182884 23.2681647,7.69182884 C12.988428,7.69182884 7.10155249,33.6304674 5.44611041,47.4685019 C5.24854531,49.1597728 4.01381486,49.9306158 2.7699692,49.9306158 C1.39063016,49.9306158 -2.27373675e-13,48.9826567 -2.27373675e-13,47.29071 C-2.27373675e-13,47.1646014 0.00773323743,47.0343793 0.0237583873,46.9001025 C2.9205174,25.7944599 8.35221987,0.0446609998 25.4004505,0.0446609998 Z M54.9171887,0.00337895722 C60.0261829,0.00337895722 65.5066371,2.67263763 70.2310571,8.93507942 C70.4950457,9.23915618 73.1431355,13.3711507 73.9789133,14.8036523 C77.9062688,21.947573 81.1440939,31.2499598 84.1391654,40.4172187 L84.6652785,42.0331007 C90.2522117,59.2442538 95.0721282,75.4985681 102.104874,75.4985681 C104.001811,75.4985681 106.059764,74.3159918 108.337158,71.650641 C109.569742,73.7471811 110.833171,75.6085458 112.140911,77.2474282 C108.935058,80.9237042 104.938268,82.9972968 99.9211903,82.9972968 C71.643505,82.9930658 68.5696166,7.67519849 52.9904658,7.67519849 C49.474695,7.67519849 46.8762684,11.3489771 46.6968749,11.3489771 C46.6239597,11.3489771 46.5545206,11.2756564 46.4549926,11.1169588 L46.3913966,11.0113986 C46.3010716,10.856734 46.1871933,10.6458851 46.0325763,10.3726788 L45.9087066,10.1559856 C45.402533,9.27976981 44.5241168,7.8753764 42.8650705,5.79611631 C46.0376385,2.15756702 50.327527,0.00337895722 54.9171887,0.00337895722 Z" id="Shape"></path>
                </g>
                <g id="Regular-M" transform="translate(11.000000, 410.000000)">
                    <path d="M72.5626377,0 C88.1663281,0 94.8983757,26.1499007 100.529239,43.3827645 C103.502878,30.9881844 101.943407,28.3268494 105.129361,28.3268494 C106.314437,28.3268494 107.513843,29.13323 107.513843,30.602676 C107.513843,31.1872583 106.578646,37.2869252 105.269315,43.4926147 L105.107157,44.2526572 C104.997856,44.759215 104.886215,45.265008 104.772538,45.7670939 L104.600534,46.5170745 C104.195808,48.2588252 103.768019,49.9371401 103.330251,51.4258601 C117.023111,87.3367038 127.190339,40.0355925 128.339209,30.3669926 C128.506891,28.9726727 129.555949,28.3268746 130.616487,28.3268746 C132.033002,28.3268746 133.194159,29.3947263 132.972812,31.0016564 C130.521192,46.6385234 126.750774,71 111.248661,71 C102.693711,71 97.8844284,64.2993473 94.0864083,56.6209741 C84.5889234,37.946513 80.2153203,6.59036383 70.904112,6.59036383 C67.9210113,6.59036383 65.7094082,9.70796004 65.5561835,9.70796004 C65.2747627,9.70796004 65.0538951,8.43772771 62.2682985,4.95749523 C64.9194166,1.92731578 68.5734211,0 72.5626377,0 Z M21.7952253,0.0382039878 C46.2051863,0.0382039878 48.3763702,64.5054729 62.1914465,64.5054729 C63.8134384,64.5054729 65.5618099,63.5212678 67.4728927,61.2921154 C68.5306807,63.0856921 69.6149354,64.6780946 70.7371872,66.0801307 C67.9795965,69.2306275 64.5484276,70.9976877 60.2517271,70.9976877 C44.8157689,70.9955261 38.1835332,45.1226294 32.4754647,27.65461 C31.1311595,33.2579286 30.43336,38.3289299 30.1601896,40.605586 C29.990666,42.0523358 28.9311876,42.7117316 27.8638878,42.7117316 C26.6803007,42.7117316 25.4870503,41.9008268 25.4870503,40.4534989 C25.4870503,40.3456229 25.4936859,40.2342281 25.5074365,40.1193648 C26.297958,34.3773054 27.8909601,25.6776542 29.6746542,19.6121679 C27.300365,13.3853452 24.334749,6.5797572 19.9655865,6.5797572 C11.1449092,6.5797572 6.0935902,28.7682311 4.67311409,40.605586 C4.50359049,42.0523358 3.44411211,42.7117316 2.37681228,42.7117316 C1.19325039,42.7117316 -1.13686838e-13,41.9008268 -1.13686838e-13,40.4534989 C-1.13686838e-13,40.3456229 0.00663561664,40.2342281 0.0203862291,40.1193648 C2.50599235,22.0651404 7.1667435,0.0382039878 21.7952253,0.0382039878 Z M47.1224909,0.00289043329 C51.5063376,0.00289043329 56.2089209,2.28623219 60.262778,7.64326071 C60.4892973,7.90337457 62.7615292,11.4379723 63.4786804,12.6633652 C66.7494894,18.5946927 69.4629286,26.2654045 71.9695204,33.8815854 L72.4230631,35.2653453 C77.3134402,50.2409157 81.4837298,64.5831124 87.6125695,64.5831124 C89.2402636,64.5831124 91.0061197,63.5715111 92.960271,61.2915121 C94.0179075,63.084938 95.1020109,64.6771898 96.2241365,66.0791253 C93.4733076,69.2238916 90.0438039,70.9976877 85.7388278,70.9976877 C61.4747494,70.9940683 58.8371549,6.56553124 45.4692384,6.56553124 C42.4524802,6.56553124 40.2228625,9.70816111 40.0689314,9.70816111 C39.7873844,9.70816111 39.5662393,8.43807959 36.7809959,4.95812359 C39.503264,1.84562962 43.1842651,0.00289043329 47.1224909,0.00289043329 Z" id="Shape"></path>
                </g>
                <g id="Regular-S" transform="translate(30.000000, 0.000000)">
                    <path d="M52.3760393,0 C63.6388534,0 68.4980757,18.7837315 72.5624581,31.1622675 C74.7088444,22.2591184 73.5832113,20.3474552 75.8828471,20.3474552 C76.7382401,20.3474552 77.6039773,20.9266864 77.6039773,21.9822039 C77.6039773,22.3913292 76.9631798,26.5610947 76.0561518,30.8978944 L75.914559,31.5659275 C75.5077147,33.4596755 75.0539346,35.3501453 74.5842415,36.9397023 C84.4678095,62.7348154 91.8065606,28.7579608 92.6358201,21.8129102 C92.7568535,20.8113565 93.5140685,20.3474733 94.2795696,20.3474733 C95.3020165,20.3474733 96.140145,21.1145217 95.9803757,22.2687954 C94.2107849,33.5009112 91.4892802,51 80.2997855,51 C74.1247842,51 70.653422,46.1868551 67.911994,40.6714039 C66.1296088,37.1837511 64.5972383,33.080304 63.187238,28.917041 L62.8639674,27.9554793 C62.7033602,27.4744206 62.5442514,26.9931349 62.386445,26.5124763 L62.0725106,25.5522483 C58.5850034,14.8446915 55.6818923,4.73392331 51.1789079,4.73392331 C49.0256924,4.73392331 47.4293473,6.97332341 47.318749,6.97332341 C47.2616185,6.97332341 47.2079453,6.90114953 47.115572,6.74178384 L47.0477939,6.62245794 C46.7872655,6.15845308 46.2650319,5.20156743 44.9455388,3.5610177 C46.8591278,1.38440993 49.4966047,0 52.3760393,0 Z M15.7318919,0.0274423011 C33.3511119,0.0274423011 34.9182822,46.3349171 44.8900666,46.3349171 C46.0608278,46.3349171 47.3228101,45.6279529 48.7022384,44.0267308 C49.4657545,45.3150746 50.2483744,46.458913 51.0584208,47.4660094 C49.0679794,49.7290423 46.5913462,50.998339 43.4899684,50.998339 C35.4679126,50.9972211 30.740064,41.3625702 27.1835754,31.2839425 L26.8898673,30.4432261 C26.8413527,30.303001 26.7930527,30.1627396 26.7449616,30.0224664 L26.4588761,29.1808827 C26.0333714,27.9188859 25.6238658,26.6599233 25.2262131,25.4219432 L24.9628217,24.5999286 C24.439369,22.9629044 23.9353501,21.3702731 23.440937,19.864579 C22.4706113,23.889498 21.9669366,27.5320482 21.7697609,29.1673927 C21.647398,30.2066074 20.8826617,30.6802579 20.1122799,30.6802579 C19.2579614,30.6802579 18.3966679,30.097777 18.3966679,29.0581471 C18.3966679,28.9806587 18.4014575,28.9006427 18.4113827,28.8181353 C18.9819847,24.6935574 20.1318208,18.4445122 21.4192993,14.0876136 C19.7055266,9.61482543 17.5649316,4.72630447 14.4112504,4.72630447 C8.04444575,4.72630447 4.3983809,20.6645041 3.37307483,29.1673927 C3.25071193,30.2066074 2.48597566,30.6802579 1.71559383,30.6802579 C0.861293516,30.6802579 0,30.097777 0,29.0581471 C0,28.9806587 0.00478961802,28.9006427 0.0147148721,28.8181353 C0.0864797404,28.2993942 0.160756656,27.7760873 0.237905601,27.2494098 L0.355828038,26.457015 C0.516049979,25.3975166 0.688480002,24.3269263 0.875997965,23.2548063 L1.01951043,22.4505788 C3.06955064,11.1915624 6.86241246,0.0274423011 15.7318919,0.0274423011 Z M34.0132265,0.00207622673 C37.1775068,0.00207622673 40.5718526,1.64222312 43.497945,5.49022952 C43.6614477,5.67707187 45.3015549,8.21600829 45.8191979,9.0962201 C48.1085406,13.2276441 50.0195844,18.5339101 51.7830271,23.8400614 L52.2752936,25.3314452 C55.8051899,36.0885451 58.8153238,46.3906864 63.2391479,46.3906864 C64.4140248,46.3906864 65.6886278,45.6640432 67.099143,44.0262975 C67.8625498,45.3145329 68.6450605,46.4582631 69.4550158,47.4652872 C67.4694551,49.7242038 64.9940239,50.998339 61.8866727,50.998339 C44.3727515,50.9957392 42.4689238,4.71608582 32.8199014,4.71608582 C30.6423917,4.71608582 29.0330436,6.97346784 28.9219354,6.97346784 C28.8647793,6.97346784 28.8110718,6.90130253 28.7186683,6.74195358 L28.6508707,6.62264004 C28.613643,6.55636041 28.5710752,6.48002289 28.5216062,6.39307124 L28.4130044,6.20485096 C28.0963956,5.66431211 27.5538894,4.81131241 26.5486888,3.56146906 C28.5136342,1.32573395 31.1705973,0.00207622673 34.0132265,0.00207622673 Z" id="Shape"></path>
                </g>
            </g>
        </g>
    </g>
</svg>