<svg xmlns="http://www.w3.org/2000/svg" viewBox="0 0 64 20"><defs><style>.cls-1{fill-rule:evenodd;}</style></defs><g id="Icon"><path class="cls-1" d="M9.21,3.13a3.75,3.75,0,0,1,.35.53,7.54,7.54,0,0,0-.49.94c-.1-.2-.2-.4-.31-.59A9,9,0,0,1,9.21,3.13ZM7.64,7.82c.08.25.17.51.25.77-.15.76-.25,1.46-.32,2h0a.2.2,0,0,1-.2.18h0a.21.21,0,0,1-.18-.23C7.29,9.79,7.44,8.82,7.64,7.82Zm-2-4.69A3.75,3.75,0,0,1,6,3.66a19.65,19.65,0,0,0-2,7H4a.2.2,0,0,1-.2.18h0a.21.21,0,0,1-.18-.23C3.91,8.49,4.42,5.18,5.63,3.13ZM18.87,8.05h0a.19.19,0,0,1,.17.22h0C19,9.07,18.8,10,18.6,11l-.25-.77c.14-.76.25-1.46.32-2v0A.2.2,0,0,1,18.87,8.05Zm3.58,0h0a.2.2,0,0,1,.18.22h0c-.32,2.09-.83,5.4-2,7.45a5.41,5.41,0,0,1-.35-.53,19.86,19.86,0,0,0,2-7v0A.2.2,0,0,1,22.45,8.05Zm-5.28,6.21.3.59a7.22,7.22,0,0,1-.44.88,4.43,4.43,0,0,1-.35-.53A10.34,10.34,0,0,0,17.17,14.26Zm-8.64-13a2.89,2.89,0,0,1,1.75.62,4.12,4.12,0,0,1,.54.48c2.71,2.79,3.86,10.16,5.68,13.14a2.55,2.55,0,0,0,.3.43,1.81,1.81,0,0,0,1.38.88,1.4,1.4,0,0,0,.55-.12,4.62,4.62,0,0,0,.57.52,3,3,0,0,1-1.59.44A2.86,2.86,0,0,1,16,17a5.36,5.36,0,0,1-.55-.48c-2.7-2.8-3.85-10.16-5.67-13.14-.55-.9-1.26-1.58-2.23-1.19a4.71,4.71,0,0,0-.57-.53A3,3,0,0,1,8.53,1.23Zm-4.06,0c6-.81,6.42,15.51,10.13,15.51a1.4,1.4,0,0,0,.55-.12,3.94,3.94,0,0,0,.57.52,3.06,3.06,0,0,1-1.59.44C10.88,17.62,9.26,11.88,8,8c-.08-.26-.17-.51-.25-.76a20,20,0,0,0-1.6-3.87,4.48,4.48,0,0,0-.37-.53,1.53,1.53,0,0,0-2.36-.38C1.55,3.82.68,8.33.41,10.62h0a.21.21,0,0,1-.21.18h0A.21.21,0,0,1,0,10.58C.41,8,1.08,3.57,3,1.92A2.88,2.88,0,0,1,4.47,1.27Zm7.64,0c3.25,0,4.86,5.75,6.12,9.61.08.26.17.51.25.76a20,20,0,0,0,1.6,3.87,5.85,5.85,0,0,0,.36.52,1.74,1.74,0,0,0,1.32.79,1.82,1.82,0,0,0,1-.4c1.87-1.35,2.74-5.85,3-8.14v0a.2.2,0,0,1,.2-.17h0a.2.2,0,0,1,.18.22c-.41,2.59-1.08,7-3,8.66a3,3,0,0,1-1.93.69c-5.43,0-6.07-15.54-9.65-15.54a1.4,1.4,0,0,0-.55.12,4.71,4.71,0,0,0-.57-.53A3,3,0,0,1,12.11,1.23Z"/></g><g id="Text"><path class="cls-1" d="M52.68,8.17a1.31,1.31,0,0,0-1.3,1.34h2.53A1.23,1.23,0,0,0,52.68,8.17Zm-16.25,0c-.86,0-1.34.64-1.34,1.75s.48,1.74,1.34,1.74,1.34-.64,1.34-1.74S37.28,8.21,36.43,8.21ZM49.62,5.52v6.93h-1V5.52Zm-18.88.31v5.72h3.1v.9H29.71V5.83ZM62,7.37c1.12,0,1.86.52,1.95,1.39H63a.93.93,0,0,0-1-.62c-.55,0-1,.27-1,.68s.25.5.79.62l.83.2c.95.22,1.4.63,1.4,1.35,0,.93-.88,1.55-2.07,1.55s-2-.53-2-1.4h1a1,1,0,0,0,1.08.63c.62,0,1-.28,1-.69s-.23-.51-.73-.63l-.87-.21C60.45,10,60,9.6,60,8.86S60.82,7.37,62,7.37Zm-4.5,0c1.12,0,1.86.52,1.95,1.39h-.94a.94.94,0,0,0-1-.62c-.55,0-1,.27-1,.68s.25.5.79.62l.83.2c.95.22,1.4.63,1.4,1.35,0,.93-.88,1.55-2.07,1.55s-2-.53-2-1.4h1a1,1,0,0,0,1.08.63c.62,0,1-.28,1-.69s-.23-.51-.73-.63l-.87-.21C56,10,55.51,9.6,55.51,8.86S56.32,7.37,57.45,7.37Zm-4.77,0c1.39,0,2.23,1,2.23,2.51v.34H51.38v0a1.34,1.34,0,0,0,1.33,1.47,1.18,1.18,0,0,0,1.19-.63h1a2,2,0,0,1-2.16,1.43A2.26,2.26,0,0,1,50.38,10,2.3,2.3,0,0,1,52.68,7.37Zm-6.86,0c1.12,0,1.86.52,2,1.39h-.94a.93.93,0,0,0-1-.62c-.55,0-1,.27-1,.68s.26.5.8.62l.83.2c1,.22,1.39.63,1.39,1.35,0,.93-.88,1.55-2.07,1.55s-2-.53-2-1.4h1c.12.39.49.63,1.09.63s1.05-.28,1.05-.69-.24-.51-.74-.63l-.87-.21c-1-.22-1.39-.64-1.39-1.38S44.69,7.37,45.82,7.37Zm-9.39,0A2.29,2.29,0,0,1,38.78,10a2.36,2.36,0,1,1-4.71,0A2.29,2.29,0,0,1,36.43,7.37Zm4.89,0c1.12,0,1.86.52,2,1.39h-.94a.93.93,0,0,0-1-.62c-.55,0-1,.27-1,.68s.25.5.8.62l.83.2c1,.22,1.39.63,1.39,1.35,0,.93-.88,1.55-2.07,1.55s-2-.53-2-1.4h1a1,1,0,0,0,1.08.63c.62,0,1-.28,1-.69s-.23-.51-.73-.63l-.87-.21c-1-.22-1.39-.64-1.39-1.38S40.19,7.37,41.32,7.37Z"/></g></svg>