<svg xmlns="http://www.w3.org/2000/svg" viewBox="0 0 62.97 20"><defs><style>.cls-1{fill-rule:evenodd;}</style></defs><g id="Icon"><path class="cls-1" d="M9.21,3.13a3.75,3.75,0,0,1,.35.53,7.54,7.54,0,0,0-.49.94c-.1-.2-.2-.4-.31-.59A9,9,0,0,1,9.21,3.13ZM7.64,7.82c.08.25.17.51.25.77-.15.76-.25,1.46-.32,2h0a.2.2,0,0,1-.2.18h0a.21.21,0,0,1-.18-.23C7.29,9.79,7.44,8.82,7.64,7.82Zm-2-4.69A3.75,3.75,0,0,1,6,3.66a19.65,19.65,0,0,0-2,7H4a.2.2,0,0,1-.2.18h0a.21.21,0,0,1-.18-.23C3.91,8.49,4.42,5.18,5.63,3.13ZM18.87,8.05h0a.19.19,0,0,1,.17.22h0C19,9.07,18.8,10,18.6,11l-.25-.77c.14-.76.25-1.46.32-2v0A.2.2,0,0,1,18.87,8.05Zm3.58,0h0a.2.2,0,0,1,.18.22h0c-.32,2.09-.83,5.4-2,7.45a5.41,5.41,0,0,1-.35-.53,19.86,19.86,0,0,0,2-7v0A.2.2,0,0,1,22.45,8.05Zm-5.28,6.21.3.59a7.22,7.22,0,0,1-.44.88,4.43,4.43,0,0,1-.35-.53A10.34,10.34,0,0,0,17.17,14.26Zm-8.64-13a2.89,2.89,0,0,1,1.75.62,4.12,4.12,0,0,1,.54.48c2.71,2.79,3.86,10.16,5.68,13.14a2.55,2.55,0,0,0,.3.43,1.81,1.81,0,0,0,1.38.88,1.4,1.4,0,0,0,.55-.12,4.62,4.62,0,0,0,.57.52,3,3,0,0,1-1.59.44A2.86,2.86,0,0,1,16,17a5.36,5.36,0,0,1-.55-.48c-2.7-2.8-3.85-10.16-5.67-13.14-.55-.9-1.26-1.58-2.23-1.19a4.71,4.71,0,0,0-.57-.53A3,3,0,0,1,8.53,1.23Zm-4.06,0c6-.81,6.42,15.51,10.13,15.51a1.4,1.4,0,0,0,.55-.12,3.94,3.94,0,0,0,.57.52,3.06,3.06,0,0,1-1.59.44C10.88,17.62,9.26,11.88,8,8c-.08-.26-.17-.51-.25-.76a20,20,0,0,0-1.6-3.87,4.48,4.48,0,0,0-.37-.53,1.53,1.53,0,0,0-2.36-.38C1.55,3.82.68,8.33.41,10.62h0a.21.21,0,0,1-.21.18h0A.21.21,0,0,1,0,10.58C.41,8,1.08,3.57,3,1.92A2.88,2.88,0,0,1,4.47,1.27Zm7.64,0c3.25,0,4.86,5.75,6.12,9.61.08.26.17.51.25.76a20,20,0,0,0,1.6,3.87,5.85,5.85,0,0,0,.36.52,1.74,1.74,0,0,0,1.32.79,1.82,1.82,0,0,0,1-.4c1.87-1.35,2.74-5.85,3-8.14v0a.2.2,0,0,1,.2-.17h0a.2.2,0,0,1,.18.22c-.41,2.59-1.08,7-3,8.66a3,3,0,0,1-1.93.69c-5.43,0-6.07-15.54-9.65-15.54a1.4,1.4,0,0,0-.55.12,4.71,4.71,0,0,0-.57-.53A3,3,0,0,1,12.11,1.23Z"/></g><g id="Text"><path class="cls-1" d="M36.59,1a.6.6,0,1,1-.61.6A.6.6,0,0,1,36.59,1ZM44.4,2.31H43V4.59h1.44a1.07,1.07,0,0,0,1.21-1.14A1.1,1.1,0,0,0,44.4,2.31Zm5,1.43A1.26,1.26,0,0,0,48.1,5h2.45A1.19,1.19,0,0,0,49.36,3.74Zm-8.42,1.1v.88H38V4.84Zm3.6-3.36a1.91,1.91,0,0,1,2.12,2,1.83,1.83,0,0,1-1.24,1.82l1.44,2.6H45.71L44.4,5.4H43V7.85H42V1.48ZM37.06,3.05v4.8h-1V3.05ZM30.77,1.48V4.17h3.29V1.48h1V7.85h-1V5H30.77V7.85h-1V1.48ZM49.36,3a2.12,2.12,0,0,1,2.16,2.42v.33H48.1v0a1.3,1.3,0,0,0,1.29,1.42,1.15,1.15,0,0,0,1.15-.6h.92A2,2,0,0,1,49.36,8a2.19,2.19,0,0,1-2.23-2.49A2.22,2.22,0,0,1,49.36,3ZM54,3c1.09,0,1.8.51,1.89,1.34H55a.9.9,0,0,0-1-.6c-.53,0-.94.27-.94.65s.25.49.77.61l.8.19c.92.21,1.36.6,1.36,1.3,0,.89-.85,1.5-2,1.5s-1.9-.52-2-1.35h1a1,1,0,0,0,1,.6c.6,0,1-.27,1-.66s-.23-.5-.71-.61l-.84-.2c-.92-.21-1.35-.62-1.35-1.33S52.89,3,54,3ZM52,13.79a1.24,1.24,0,0,0-1.25,1.28h2.44A1.18,1.18,0,0,0,52,13.79Zm-15.75,0c-.83,0-1.29.62-1.29,1.69s.46,1.68,1.29,1.68,1.3-.62,1.3-1.68S37.11,13.82,36.28,13.82Zm12.79-2.6v6.69h-1V11.22Zm-18.3.31v5.52h3v.86h-4V11.53ZM45.39,13c1.08,0,1.8.51,1.89,1.34h-.92c-.09-.36-.43-.59-1-.59s-.94.26-.94.65.24.48.77.6l.8.19c.92.21,1.35.6,1.35,1.3,0,.89-.85,1.5-2,1.5s-1.91-.52-2-1.35h1a1,1,0,0,0,1,.61c.59,0,1-.28,1-.67s-.23-.49-.71-.61l-.85-.2c-.92-.21-1.35-.62-1.35-1.33S44.29,13,45.39,13ZM41,13c1.09,0,1.8.51,1.9,1.34H42c-.09-.36-.43-.59-1-.59s-.93.26-.93.65.24.48.76.6l.81.19c.92.21,1.35.6,1.35,1.3,0,.89-.85,1.5-2,1.5s-1.91-.52-2-1.35H40a1,1,0,0,0,1.06.61c.59,0,1-.28,1-.67s-.23-.49-.72-.61l-.84-.2c-.92-.21-1.35-.62-1.35-1.33S39.93,13,41,13Zm15.63,0c1.09,0,1.8.51,1.9,1.34h-.92c-.09-.36-.44-.59-1-.59s-.94.26-.94.65.25.48.77.6l.81.19c.92.21,1.35.6,1.35,1.3,0,.89-.85,1.5-2,1.5s-1.9-.52-2-1.35h1a1,1,0,0,0,1.06.61c.59,0,1-.28,1-.67S57.45,16.1,57,16l-.84-.2c-.92-.21-1.35-.62-1.35-1.33S55.56,13,56.65,13ZM61,13c1.09,0,1.8.51,1.9,1.34H62c-.09-.36-.43-.59-1-.59s-.93.26-.93.65.24.48.76.6l.81.19c.92.21,1.35.6,1.35,1.3,0,.89-.85,1.5-2,1.5s-1.91-.52-2-1.35h1a1,1,0,0,0,1.06.61c.59,0,1-.28,1-.67s-.23-.49-.72-.61l-.84-.2c-.92-.21-1.35-.62-1.35-1.33S59.92,13,61,13ZM36.28,13a2.23,2.23,0,0,1,2.29,2.5,2.29,2.29,0,1,1-4.57,0A2.22,2.22,0,0,1,36.28,13ZM52,13a2.12,2.12,0,0,1,2.16,2.42v.33H50.78v0a1.29,1.29,0,0,0,1.28,1.42,1.16,1.16,0,0,0,1.16-.6h.92A2,2,0,0,1,52,18a2.19,2.19,0,0,1-2.24-2.48A2.23,2.23,0,0,1,52,13Z"/></g></svg>